<?xml version="1.0" encoding="UTF-8"?>
<svg xmlns="http://www.w3.org/2000/svg" xmlns:xlink="http://www.w3.org/1999/xlink" width="295.94727pt" height="271.68483pt" viewBox="0 0 295.94727 271.68483" version="1.1">
<g id="surface1">
<path style=" stroke:none;fill-rule:nonzero;fill:rgb(0%,0%,0%);fill-opacity:1;" d="M 252.085938 249.636719 C 248.605469 248.667969 245.296875 247.40625 244.75 246.859375 C 243.367188 245.476562 245.316406 241.949219 247.917969 241.128906 C 250.746094 240.230469 251.996094 237.359375 251.4375 233.003906 C 250.894531 228.785156 245.566406 222.617188 237.921875 217.359375 C 235.441406 215.660156 233.132812 213.851562 232.78125 213.332031 C 232.203125 212.460938 222.417969 208.640625 220.789062 208.640625 C 220.078125 208.640625 216.929688 214.339844 216.929688 215.628906 C 216.929688 216.007812 218.046875 216.828125 219.429688 217.457031 C 223.726562 219.417969 222.40625 221.488281 214.539062 225.175781 C 206.082031 229.144531 204.265625 229.335938 199.144531 226.796875 C 192.089844 223.304688 176.164062 219.4375 172.15625 220.246094 C 170.226562 220.628906 168.746094 220.289062 167.675781 219.226562 C 165.457031 217.007812 162.339844 217.238281 160.570312 219.757812 C 159.429688 221.398438 158.472656 221.738281 156.441406 221.21875 C 154.164062 220.648438 153.871094 220.828125 154.394531 222.4375 C 154.753906 223.578125 154.164062 225.367188 152.902344 226.964844 C 150.0625 230.574219 151.175781 231.875 156.421875 231.082031 C 161.910156 230.265625 162.757812 231.59375 159.769531 236.351562 C 158.492188 238.378906 156.960938 241.410156 156.363281 243.078125 C 155.351562 245.9375 158.292969 239.351562 156.152344 243.027344 C 154.003906 246.726562 155.113281 245.886719 152.171875 246.386719 L 151.382812 245.128906 L 148.414062 242.007812 C 146.785156 240.300781 144.554688 237.390625 143.457031 235.542969 C 138.308594 226.875 136.960938 224.195312 136.960938 222.636719 C 136.960938 221.707031 136.019531 220.097656 134.878906 219.058594 C 132.359375 216.777344 129.960938 211.320312 129.960938 207.863281 C 129.960938 205.441406 129.871094 205.414062 128.082031 207.03125 C 126.824219 208.171875 125.363281 208.523438 123.695312 208.113281 C 122.285156 207.753906 120.886719 207.953125 120.515625 208.5625 C 120.144531 209.152344 118.476562 209.640625 116.816406 209.640625 C 114.617188 209.640625 113.636719 209.082031 113.257812 207.640625 C 112.589844 205.082031 111.277344 205.082031 110.46875 207.640625 C 108.910156 212.5625 102.292969 212.5 101.304688 207.5625 C 100.632812 204.214844 98.414062 203.683594 97.472656 206.644531 C 97.125 207.742188 96.394531 208.640625 95.84375 208.640625 C 94.324219 208.640625 88.898438 214.820312 87.808594 217.808594 C 85.847656 223.175781 80.582031 221.808594 77.390625 215.101562 C 76.460938 213.128906 75.203125 211.742188 74.59375 211.992188 C 73.984375 212.242188 72.683594 212.769531 71.714844 213.160156 C 69.214844 214.160156 60.988281 205.863281 60.988281 202.335938 C 60.988281 200.914062 60.539062 199.484375 59.988281 199.144531 C 59.4375 198.804688 58.988281 197.445312 58.988281 196.125 C 58.988281 194.136719 58.257812 193.539062 54.742188 192.636719 C 48.183594 190.957031 47.832031 190.769531 47.285156 188.640625 C 46.992188 187.550781 46.34375 186.652344 45.835938 186.652344 C 45.324219 186.652344 43.816406 185.5625 42.496094 184.242188 C 40.585938 182.332031 40.207031 181.140625 40.636719 178.472656 C 40.9375 176.625 40.457031 172.605469 39.566406 169.546875 C 37.957031 164 37.957031 163.988281 40.675781 159.070312 C 42.175781 156.371094 43.914062 153.714844 44.542969 153.164062 C 47.125 150.925781 48.992188 147.035156 48.992188 143.90625 C 48.992188 141.335938 48.09375 139.726562 44.996094 136.78125 C 42.796875 134.691406 40.996094 132.230469 40.996094 131.320312 C 40.996094 130.410156 40.246094 129.671875 39.328125 129.671875 C 38.40625 129.671875 36.949219 129.0625 36.078125 128.324219 C 35.207031 127.582031 32.347656 126.394531 29.71875 125.683594 C 24.390625 124.246094 20.003906 119.957031 20.003906 116.175781 C 20.003906 114.886719 21.125 112.488281 22.503906 110.859375 C 23.871094 109.230469 25.003906 106.789062 25.003906 105.441406 C 25.003906 102.671875 27.300781 100.273438 31 99.171875 C 34.398438 98.164062 35.996094 96.753906 35.996094 94.753906 C 35.996094 93.835938 37.527344 91.597656 39.398438 89.777344 C 41.867188 87.386719 42.984375 85.257812 43.464844 82.03125 C 43.984375 78.53125 45.414062 76.09375 50.101562 70.644531 C 56.191406 63.578125 59.019531 61.988281 63.527344 63.117188 C 67.277344 64.058594 68.496094 62.816406 66.054688 60.546875 C 64.917969 59.488281 63.988281 58.019531 63.988281 57.28125 C 63.988281 56.082031 73.195312 47.804688 76.742188 45.8125 C 77.933594 45.144531 77.980469 43.984375 77.003906 38.617188 C 74.554688 25.140625 74.5625 23.871094 77.132812 21.734375 C 81.890625 17.765625 91.976562 20.125 91.976562 25.210938 C 91.976562 26.292969 93.144531 26.730469 96.226562 26.792969 C 98.5625 26.832031 110.308594 27.03125 122.324219 27.230469 L 144.175781 27.589844 L 148.207031 30.378906 C 151.804688 32.878906 152.953125 33.140625 158.839844 32.847656 C 162.480469 32.660156 165.898438 32.148438 166.449219 31.710938 C 169.636719 29.148438 192.308594 25.941406 194.488281 27.75 C 195.167969 28.320312 198.597656 29.242188 202.085938 29.789062 C 205.574219 30.339844 210.230469 31.417969 212.429688 32.1875 C 214.628906 32.957031 218.679688 33.878906 221.425781 34.238281 C 228.324219 35.128906 229.613281 36.539062 229.375 42.945312 C 229.265625 45.835938 228.84375 49.882812 228.445312 51.941406 C 227.765625 55.378906 227.296875 55.808594 222.738281 57.160156 C 220.007812 57.96875 216.21875 58.929688 214.308594 59.289062 C 211.882812 59.738281 210.421875 60.777344 209.371094 62.796875 C 207.980469 65.507812 198.636719 72.664062 196.445312 72.714844 C 195.886719 72.722656 194.378906 73.542969 193.089844 74.542969 C 191.308594 75.914062 190.679688 77.5 190.4375 81.230469 C 190.140625 85.96875 187.671875 89.605469 183.902344 90.867188 C 182.140625 91.445312 184.242188 98.0625 187.359375 101.773438 C 188.78125 103.453125 189.9375 105.671875 189.9375 106.699219 C 189.9375 107.71875 190.390625 108.839844 190.9375 109.179688 C 191.488281 109.519531 191.9375 108.871094 191.9375 107.742188 C 191.9375 105.402344 192.058594 105.382812 200.933594 105.640625 C 205.953125 105.792969 208.242188 106.382812 210.980469 108.25 C 213.242188 109.800781 215.96875 110.679688 218.476562 110.6875 C 223.257812 110.710938 226.574219 112.296875 229.183594 115.816406 L 231.144531 118.445312 L 227.503906 124.964844 C 225.496094 128.550781 222.726562 132.222656 221.347656 133.128906 C 219.96875 134.03125 218.378906 135.78125 217.820312 137.007812 C 217.257812 138.238281 214.808594 140.578125 212.378906 142.207031 C 209.363281 144.226562 208.164062 145.636719 208.582031 146.664062 C 209.613281 149.164062 209.023438 152.902344 207.273438 154.832031 C 205.832031 156.421875 205.824219 156.660156 207.152344 156.660156 C 207.992188 156.660156 209.242188 157.332031 209.933594 158.160156 C 211.550781 160.109375 214.808594 160.070312 217.007812 158.082031 C 219.296875 156.011719 225.367188 155.582031 227.835938 157.3125 C 230.132812 158.921875 233.472656 172.324219 232.523438 176.113281 C 232.183594 177.453125 230.113281 180.621094 227.914062 183.152344 C 225.726562 185.691406 223.925781 188.339844 223.925781 189.03125 C 223.925781 189.730469 225.027344 191.328125 226.375 192.597656 C 227.714844 193.859375 228.953125 195.847656 229.125 197.015625 C 229.375 198.816406 230.113281 199.15625 233.921875 199.207031 C 238.832031 199.265625 240.628906 199.867188 245.917969 203.214844 C 247.835938 204.433594 251.007812 205.933594 252.964844 206.542969 C 256.402344 207.632812 263.910156 215.230469 263.910156 217.636719 C 263.910156 218.257812 266.398438 221.136719 269.449219 224.046875 C 275.777344 230.074219 277.046875 234.03125 274.867188 240.941406 C 271.679688 251.066406 265.558594 253.40625 252.085938 249.636719 Z M 266.710938 249.226562 C 270.289062 247.378906 272.21875 244.949219 273.796875 240.289062 C 275.785156 234.421875 274.546875 230.285156 269.558594 226.207031 C 267.199219 224.277344 264.640625 221.445312 263.851562 219.917969 C 261.023438 214.390625 255.515625 208.660156 251.964844 207.542969 C 250.007812 206.933594 246.835938 205.433594 244.917969 204.214844 C 239.949219 201.074219 238.011719 200.433594 232.921875 200.285156 C 229.144531 200.164062 228.375 199.796875 228.125 198.015625 C 227.953125 196.847656 226.714844 194.855469 225.375 193.597656 C 221.9375 190.367188 222.316406 187.480469 226.84375 182.242188 C 229.003906 179.742188 231.042969 176.835938 231.382812 175.765625 C 232.101562 173.515625 229.394531 160.929688 227.773438 158.980469 C 226.277344 157.171875 219.46875 157.300781 217.929688 159.160156 C 217.238281 159.980469 215.21875 160.660156 213.429688 160.660156 C 211.640625 160.660156 209.613281 159.980469 208.933594 159.160156 C 208.242188 158.332031 207.0625 157.660156 206.3125 157.660156 C 204.445312 157.660156 204.5625 155.210938 206.511719 153.59375 C 207.691406 152.613281 207.953125 151.234375 207.523438 148.226562 C 206.960938 144.304688 207.09375 144.066406 211.371094 141.207031 C 213.808594 139.578125 216.257812 137.238281 216.820312 136.007812 C 217.378906 134.78125 218.957031 133.039062 220.328125 132.140625 C 222.886719 130.472656 228.925781 120.785156 228.925781 118.367188 C 228.925781 115.40625 224.144531 112.488281 218.167969 111.777344 C 214.421875 111.339844 211.242188 110.28125 209.460938 108.878906 C 207.191406 107.101562 205.363281 106.679688 199.796875 106.679688 C 193.519531 106.679688 192.9375 106.851562 192.9375 108.75 C 192.9375 111.820312 189.738281 110.78125 188.851562 107.421875 C 188.441406 105.910156 186.992188 103.34375 185.621094 101.710938 C 182.78125 98.34375 180.972656 90.507812 182.882812 89.867188 C 183.542969 89.65625 185.222656 88.488281 186.628906 87.277344 C 188.648438 85.539062 189.210938 84.089844 189.308594 80.332031 C 189.410156 76.523438 189.9375 75.191406 191.9375 73.652344 C 193.308594 72.605469 194.886719 71.722656 195.445312 71.714844 C 197.605469 71.664062 206.972656 64.527344 208.332031 61.886719 C 209.542969 59.546875 210.953125 58.820312 217.097656 57.371094 C 221.128906 56.421875 225.015625 55.269531 225.746094 54.820312 C 226.523438 54.332031 227.355469 50.882812 227.792969 46.324219 C 228.664062 37.21875 227.996094 36.21875 220.425781 35.238281 C 217.679688 34.878906 213.628906 33.957031 211.429688 33.1875 C 209.230469 32.417969 204.542969 31.328125 201.015625 30.769531 C 197.476562 30.21875 194.167969 29.339844 193.648438 28.820312 C 191.949219 27.121094 170.554688 30.28125 167.449219 32.679688 C 166.898438 33.109375 163.070312 33.679688 158.949219 33.957031 C 151.855469 34.449219 151.242188 34.320312 147.34375 31.519531 L 143.226562 28.5625 L 121.34375 28.242188 C 89.046875 27.769531 90.976562 27.902344 90.976562 26.210938 C 90.976562 23.582031 87.167969 20.714844 83.730469 20.742188 C 77.683594 20.804688 74.144531 26.382812 76.882812 31.519531 C 77.371094 32.449219 78.082031 36.128906 78.460938 39.707031 C 79.132812 46.074219 79.089844 46.234375 76.3125 47.933594 C 74.753906 48.894531 71.503906 51.402344 69.09375 53.511719 L 64.695312 57.351562 L 66.964844 59.46875 C 70.484375 62.746094 69.003906 65.117188 63.9375 64.308594 C 58.75 63.476562 57.238281 64.367188 50.613281 72.175781 C 46.414062 77.132812 44.964844 79.691406 44.453125 83.070312 C 43.984375 86.257812 42.855469 88.398438 40.394531 90.777344 C 38.527344 92.597656 36.996094 94.835938 36.996094 95.753906 C 36.996094 97.753906 35.398438 99.164062 32 100.171875 C 28.300781 101.273438 26 103.671875 26 106.441406 C 26 107.789062 24.871094 110.230469 23.503906 111.859375 C 22.125 113.488281 21.003906 115.4375 21.003906 116.175781 C 21.003906 119.046875 25.980469 123.40625 30.71875 124.683594 C 33.347656 125.394531 36.207031 126.582031 37.078125 127.324219 C 37.945312 128.0625 39.40625 128.671875 40.324219 128.671875 C 41.246094 128.671875 41.996094 129.414062 41.996094 130.320312 C 41.996094 131.230469 43.792969 133.691406 45.992188 135.78125 C 49.453125 139.078125 49.992188 140.167969 49.992188 143.90625 C 49.992188 147.90625 48.324219 151.753906 45.542969 154.164062 C 44.914062 154.710938 43.253906 157.222656 41.855469 159.742188 C 39.476562 164.039062 39.40625 164.589844 40.644531 168.738281 C 41.367188 171.167969 41.976562 175.316406 41.976562 177.945312 C 41.996094 182.203125 42.324219 182.933594 44.933594 184.429688 C 46.554688 185.359375 48.09375 186.910156 48.34375 187.878906 C 48.832031 189.769531 49.242188 189.96875 55.742188 191.636719 C 59.257812 192.539062 59.988281 193.136719 59.988281 195.128906 C 59.988281 196.445312 60.4375 197.804688 60.988281 198.144531 C 61.539062 198.484375 61.988281 199.855469 61.988281 201.195312 C 61.988281 202.605469 63.546875 205.363281 65.65625 207.691406 C 68.996094 211.402344 69.644531 211.699219 72.953125 211.140625 C 76.210938 210.589844 76.730469 210.820312 77.992188 213.332031 C 81.402344 220.148438 85.058594 221.628906 86.777344 216.890625 C 87.898438 213.839844 93.304688 207.640625 94.84375 207.640625 C 95.394531 207.640625 96.125 206.742188 96.476562 205.644531 C 97.335938 202.914062 101.972656 202.855469 101.972656 205.574219 C 101.972656 206.632812 102.671875 208.203125 103.542969 209.0625 C 105.441406 210.960938 108.488281 209.710938 109.46875 206.644531 C 110.289062 204.054688 113.578125 204.054688 114.257812 206.644531 C 114.816406 208.792969 118.375 209.402344 119.527344 207.542969 C 119.894531 206.941406 121.503906 206.644531 123.105469 206.871094 C 124.773438 207.121094 126.464844 206.734375 127.101562 205.972656 C 128.871094 203.84375 130.960938 204.414062 130.960938 207.023438 C 130.960938 210.339844 133.402344 215.820312 135.878906 218.058594 C 137.019531 219.097656 137.960938 220.707031 137.960938 221.636719 C 137.960938 223.195312 139.308594 225.875 144.457031 234.542969 C 145.554688 236.390625 147.644531 239.152344 149.09375 240.691406 C 150.542969 242.21875 151.921875 244.039062 152.152344 244.726562 C 152.773438 246.597656 154.632812 245.019531 155.402344 241.949219 C 155.78125 240.460938 156.953125 238.03125 158.019531 236.53125 C 160.878906 232.503906 160.441406 231.792969 155.203125 231.972656 C 151.085938 232.113281 150.414062 231.851562 150.15625 230.042969 C 149.996094 228.894531 150.554688 227.375 151.402344 226.675781 C 152.253906 225.964844 152.953125 224.035156 152.953125 222.386719 C 152.953125 219.636719 153.183594 219.429688 155.753906 219.949219 C 157.832031 220.359375 158.859375 220.007812 159.761719 218.566406 C 161.21875 216.21875 166.417969 215.96875 168.585938 218.136719 C 169.527344 219.066406 170.996094 219.40625 172.484375 219.039062 C 175.953125 218.167969 191.628906 222.148438 202.484375 226.65625 C 205.285156 227.816406 206.214844 227.605469 213.480469 224.207031 C 220.886719 220.738281 221.296875 220.386719 219.488281 219.058594 C 218.417969 218.277344 217.179688 217.636719 216.738281 217.636719 C 215.417969 217.636719 215.808594 214.179688 217.5 210.792969 C 218.367188 209.0625 219.847656 207.640625 220.789062 207.640625 C 223.175781 207.640625 233.011719 211.191406 233.78125 212.332031 C 234.132812 212.851562 236.441406 214.660156 238.921875 216.359375 C 246.289062 221.425781 251.90625 227.835938 252.566406 231.902344 C 253.425781 237.191406 252.285156 240.390625 248.898438 242.140625 C 244.6875 244.320312 245.136719 246.335938 250.167969 247.707031 C 252.503906 248.335938 255.535156 249.214844 256.914062 249.667969 C 260.742188 250.894531 263.742188 250.757812 266.710938 249.226562 Z M 266.710938 249.226562 "/>
<path style=" stroke:none;fill-rule:nonzero;fill:rgb(80%,80%,80%);fill-opacity:1;" d="M 253.316406 247.917969 C 247.488281 246.246094 247.265625 245.90625 250.054688 242.828125 C 255.644531 236.652344 253.835938 228.925781 244.886719 220.667969 C 235.703125 212.210938 227.105469 207.242188 221.628906 207.242188 C 217.507812 207.242188 214.980469 212.820312 216.679688 218.167969 C 217.507812 220.808594 216.378906 222.226562 211.972656 224.046875 C 206.960938 226.125 204.234375 225.914062 191.917969 222.535156 C 163.507812 214.730469 154.59375 215.140625 151.085938 224.4375 C 148.59375 231.035156 149.464844 233.300781 154.511719 233.300781 C 158.722656 233.300781 158.890625 234.480469 155.53125 240.539062 L 153.074219 244.976562 L 147.476562 236.8125 C 144.40625 232.324219 139.207031 223.078125 135.941406 216.269531 L 129.992188 203.882812 L 123.453125 205.683594 C 118.644531 207.011719 116.167969 206.863281 114.058594 205.113281 C 111.679688 203.132812 110.738281 203.355469 108.488281 206.382812 C 105.960938 209.8125 105.679688 209.839844 103.953125 206.78125 C 101.0625 201.683594 97.542969 202.875 90.226562 211.429688 L 83.460938 219.339844 L 80.3125 215.300781 C 78.582031 213.070312 75.074219 210.980469 72.503906 210.640625 C 69.085938 210.203125 66.617188 207.632812 63.1875 200.933594 C 60.617188 195.9375 56.851562 191.207031 54.8125 190.4375 C 48.351562 188 43.214844 180.53125 41.957031 171.765625 C 40.925781 164.570312 41.457031 162.230469 45.464844 156.332031 C 48.054688 152.511719 50.171875 147.246094 50.171875 144.636719 C 50.171875 137.640625 43.285156 129.183594 34.539062 125.433594 C 22.613281 120.324219 21.304688 117.777344 25.902344 108.738281 C 28.03125 104.570312 30.558594 101.152344 31.53125 101.152344 C 34.5 101.152344 40.515625 93.597656 44.683594 84.609375 C 50.292969 72.542969 57.128906 65.796875 63.765625 65.796875 C 68.605469 65.796875 69.113281 65.257812 68.316406 61.078125 C 67.605469 57.359375 68.816406 55.199219 73.953125 50.960938 C 80.492188 45.585938 80.492188 45.554688 78.613281 36.027344 C 77.09375 28.332031 77.242188 25.960938 79.402344 23.800781 C 83 20.203125 84.980469 20.421875 88.757812 24.84375 C 91.65625 28.21875 94.253906 28.570312 116.726562 28.570312 C 136.429688 28.570312 142.449219 29.191406 146.105469 31.578125 C 150.972656 34.777344 163.140625 34.46875 180.460938 30.710938 C 187.191406 29.25 192.5 29.710938 207.441406 33.058594 C 223.90625 36.738281 226.136719 37.707031 226.675781 41.457031 C 227.863281 49.542969 225.4375 54.261719 219.40625 55.589844 C 216.257812 56.28125 211.019531 59.160156 207.773438 61.988281 C 204.523438 64.828125 199.15625 68.523438 195.835938 70.226562 C 192.117188 72.132812 189.347656 75.242188 188.578125 78.390625 C 187.898438 81.191406 185.8125 85.4375 183.953125 87.847656 C 180.832031 91.875 180.78125 92.746094 183.390625 99.015625 C 187.46875 108.828125 190.359375 111.277344 194.9375 108.820312 C 197.804688 107.28125 201.675781 107.730469 211.441406 110.738281 C 218.457031 112.898438 224.976562 115.367188 225.914062 116.238281 C 228.484375 118.585938 224.394531 126.152344 215.148438 136.128906 C 205.304688 146.746094 202.15625 157.8125 208.402344 159.789062 C 210.519531 160.46875 215.519531 160.460938 219.507812 159.789062 C 226.675781 158.582031 226.773438 158.640625 228.984375 166 C 230.964844 172.625 230.773438 174.125 227.234375 179.851562 C 225.054688 183.390625 223.265625 187.679688 223.265625 189.390625 C 223.265625 195.015625 229.035156 201.664062 233.933594 201.664062 C 242.148438 201.664062 256.203125 210.953125 265.070312 222.238281 C 274.6875 234.472656 275.4375 239 268.949219 245.488281 C 264 250.4375 262.730469 250.636719 253.316406 247.917969 Z M 253.316406 247.917969 "/>
</g>
</svg>